<?xml version="1.0" standalone="no"?>
<!DOCTYPE svg PUBLIC "-//W3C//DTD SVG 20010904//EN"
 "http://www.w3.org/TR/2001/REC-SVG-20010904/DTD/svg10.dtd">
<svg version="1.0" xmlns="http://www.w3.org/2000/svg"
 width="512.000000pt" height="512.000000pt" viewBox="0 0 512.000000 512.000000"
 preserveAspectRatio="xMidYMid meet">
<metadata>
Created by potrace 1.14, written by Peter Selinger 2001-2017
</metadata>
<g transform="translate(0.000000,512.000000) scale(0.100000,-0.100000)"
fill="#000000" stroke="none">
<path d="M2378 5115 c-2 -1 -39 -5 -82 -9 -44 -4 -82 -9 -85 -11 -4 -2 -34 -7
-66 -10 -88 -10 -345 -77 -460 -119 -127 -47 -381 -171 -477 -233 -74 -48
-209 -142 -218 -153 -3 -3 -15 -13 -27 -21 -36 -25 -174 -152 -245 -226 -400
-416 -645 -941 -705 -1513 -15 -139 -8 -503 11 -615 3 -16 8 -43 10 -60 13
-90 40 -202 78 -330 138 -461 421 -890 793 -1205 84 -70 88 -74 140 -110 28
-19 52 -37 55 -40 9 -9 113 -76 175 -113 250 -148 591 -271 870 -312 22 -4 51
-8 65 -11 105 -19 491 -26 625 -11 1134 124 2054 990 2250 2115 25 145 30 227
29 462 0 258 -13 365 -74 603 -178 709 -663 1312 -1325 1651 -268 138 -537
219 -855 260 -87 11 -472 20 -482 11z"/>
</g>
</svg>
